# File created by Blade
# Date/Time:  Tue Jan 27 18:55:59 2015
#---------------------------------------------------------
:version 1.10
:name HOM
:units
  mass 1.0
  length 1.000000
  angle deg
:documentation
     Acclaim Skeleton File
:root
   axis xyz
   order TX TY TZ RX RY RZ
   position 0.000000 0.000000 0.000000
   orientation 0 0 0
:bonedata
   begin
      id 1
      name Spine_dum
      direction 0.000000 1.000000 0.000000
      length 5.195262
      axis 0.0 0.0 0.0 xyz
   end
   begin
      id 2
      name LeftUpLeg_dum
      direction 1.000000 0.000000 0.000000
      length 3.351363
      axis 0.0 0.0 0.0 xyz
   end
   begin
      id 3
      name RightUpLeg_dum
      direction -1.000000 0.000000 0.000000
      length 3.351363
      axis 0.0 0.0 0.0 xyz
   end
   begin
      id 4
      name Spine
      direction 0.000000 1.000000 0.000000
      length 0.000000
      axis 0.0 0.0 0.0 xyz
      dof rx ry rz
   end
   begin
      id 5
      name Spine_dum1
      direction 0.000000 1.000000 0.000000
      length 15.653875
      axis 0.0 0.0 0.0 xyz
   end
   begin
      id 6
      name Spine_dum2
      direction 0.000000 1.000000 0.000000
      length 10.329768
      axis 0.0 0.0 0.0 xyz
   end
   begin
      id 7
      name Spine_dum3
      direction 0.000000 1.000000 0.000000
      length 10.329768
      axis 0.0 0.0 0.0 xyz
   end
   begin
      id 8
      name Head
      direction 0.000000 1.000000 0.000000
      length 4.527550
      axis 0.0 0.0 0.0 xyz
      dof rx ry rz
   end
   begin
      id 9
      name LeftShoulder
      direction 1.000000 0.000000 0.000000
      length 6.996006
      axis 0.0 0.0 -90.0 xyz
      dof rx ry rz
   end
   begin
      id 10
      name LeftArm
      direction 1.000000 0.000000 0.000000
      length 10.209302
      axis 0.0 0.0 -90.0 xyz
      dof rx ry rz
   end
   begin
      id 11
      name LeftForeArm
      direction 1.000000 0.000000 0.000000
      length 8.563163
      axis 0.0 0.0 -90.0 xyz
      dof ry rz rx
   end
   begin
      id 12
      name LeftHand
      direction 0.000000 0.000000 0.000000
      length 0.000000
      axis 0.0 0.0 -90.0 xyz
      dof rx ry rz
   end
   begin
      id 13
      name LeftHand_dum1
      direction 0.000000 0.000000 0.000000
      length 0.000000
      axis 0.0 0.0 -90.0 xyz
   end
   begin
      id 14
      name LeftHand_dum2
      direction 1.000000 0.000000 0.000000
      length 3.937000
      axis 0.0 0.0 -90.0 xyz
   end
   begin
      id 15
      name LeftHandThumb1
      direction 0.000000 0.000000 1.000000
      length 3.937000
      axis 0.0 0.0 -90.0 xyz
      dof rx rz ry
   end
   begin
      id 16
      name RightShoulder
      direction -1.000000 0.000000 0.000000
      length 6.996006
      axis 0.0 0.0 90.0 xyz
      dof rx ry rz
   end
   begin
      id 17
      name RightArm
      direction -1.000000 0.000000 0.000000
      length 10.209302
      axis 0.0 0.0 90.0 xyz
      dof rx ry rz
   end
   begin
      id 18
      name RightForeArm
      direction -1.000000 0.000000 0.000000
      length 8.563163
      axis 0.0 0.0 90.0 xyz
      dof ry rz rx
   end
   begin
      id 19
      name RightHand
      direction 0.000000 0.000000 0.000000
      length 0.000000
      axis 0.0 0.0 90.0 xyz
      dof rx ry rz
   end
   begin
      id 20
      name RightHand_dum1
      direction 0.000000 0.000000 0.000000
      length 0.000000
      axis 0.0 0.0 90.0 xyz
   end
   begin
      id 21
      name RightHand_dum2
      direction -1.000000 0.000000 0.000000
      length 3.937000
      axis 0.0 0.0 90.0 xyz
   end
   begin
      id 22
      name RightHandThumb1
      direction 0.000000 0.000000 1.000000
      length 3.937000
      axis 0.0 0.0 90.0 xyz
      dof rx rz ry
   end
   begin
      id 23
      name LeftUpLeg
      direction 0.000000 -1.000000 0.000000
      length 16.346831
      axis 0.0 0.0 0.0 xyz
      dof rx ry rz
   end
   begin
      id 24
      name LeftLeg
      direction 0.000000 -1.000000 0.000000
      length 13.959795
      axis 0.0 0.0 0.0 xyz
      dof rx ry rz
   end
   begin
      id 25
      name LeftFoot
      direction 0.000000 -0.258819 0.965926
      length 5.165550
      axis 15.0 0.0 0.0 xyz
      dof rx ry rz
   end
   begin
      id 26
      name LeftToeBase
      direction 0.000000 0.000000 1.000000
      length 2.952750
      axis 0.0 0.0 0.0 xyz
      dof rx ry rz
   end
   begin
      id 27
      name RightUpLeg
      direction 0.000000 -1.000000 0.000000
      length 16.346831
      axis 0.0 0.0 0.0 xyz
      dof rx ry rz
   end
   begin
      id 28
      name RightLeg
      direction 0.000000 -1.000000 0.000000
      length 13.959795
      axis 0.0 0.0 0.0 xyz
      dof rx ry rz
   end
   begin
      id 29
      name RightFoot
      direction 0.000000 -0.258819 0.965926
      length 5.165550
      axis 15.0 0.0 0.0 xyz
      dof rx ry rz
   end
   begin
      id 30
      name RightToeBase
      direction 0.000000 0.000000 1.000000
      length 2.952750
      axis 0.0 0.0 0.0 xyz
      dof rx ry rz
   end
:hierarchy
   begin
      root Spine_dum LeftUpLeg_dum RightUpLeg_dum
      Spine_dum Spine
      LeftUpLeg_dum LeftUpLeg
      RightUpLeg_dum RightUpLeg
      Spine Spine_dum1 Spine_dum2 Spine_dum3
      Spine_dum1 Head
      Spine_dum2 LeftShoulder
      Spine_dum3 RightShoulder
      LeftShoulder LeftArm
      LeftArm LeftForeArm
      LeftForeArm LeftHand
      LeftHand LeftHand_dum1 LeftHand_dum2
      LeftHand_dum1 LeftHandThumb1
      RightShoulder RightArm
      RightArm RightForeArm
      RightForeArm RightHand
      RightHand RightHand_dum1 RightHand_dum2
      RightHand_dum1 RightHandThumb1
      LeftUpLeg LeftLeg
      LeftLeg LeftFoot
      LeftFoot LeftToeBase
      RightUpLeg RightLeg
      RightLeg RightFoot
      RightFoot RightToeBase
   end

# File created by Blade
# Date/Time:  Tue Jan 27 18:55:50 2015
# Frame Rate: 120.000 fps
#------------------------------------------------------
:FULLY-SPECIFIED
:DEGREES
245
root -1.845369 31.591243 -6.231595 0.802166 8.817913 0.079010
Spine 3.295553 -6.667893 -1.332451
Head 11.624705 4.516072 2.648789
LeftShoulder -17.228576 15.839743 12.981906
LeftArm 8.387922 -42.368344 -66.161729
LeftForeArm -15.448568 -0.000000 77.397301
LeftHand -8.550882 -0.000000 19.188579
LeftHandThumb1 -26.253704 0.000000 33.147579
RightShoulder -11.682601 -2.212771 -12.415914
RightArm 6.000982 -29.328816 87.060212
RightForeArm -23.030384 0.000000 21.513063
RightHand -14.677956 -0.000000 10.534415
RightHandThumb1 -24.326973 -0.000000 -32.862282
LeftUpLeg -6.096160 -3.022732 -8.267205
LeftLeg 16.819571 -0.000000 -0.000000
LeftFoot -27.349425 25.663148 -21.637424
LeftToeBase 9.274286 -0.000000 -0.000000
RightUpLeg -42.019447 -6.883066 -6.352825
RightLeg 89.743741 -0.000000 -0.000000
RightFoot -2.459893 -12.057057 14.837823
RightToeBase 0.679728 -0.000000 -0.000000
246
root -1.833449 31.591168 -6.241115 0.771430 8.839667 0.020965
Spine 3.369787 -6.668060 -1.292200
Head 11.365023 4.480078 2.697913
LeftShoulder -17.217418 15.844205 12.970672
LeftArm 8.485761 -42.464047 -66.362158
LeftForeArm -15.373266 -0.000000 77.550394
LeftHand -8.487537 -0.000000 19.202672
LeftHandThumb1 -26.253704 0.000000 33.147579
RightShoulder -11.700630 -2.223516 -12.363311
RightArm 6.065174 -29.363496 87.008146
RightForeArm -23.060623 -0.000000 21.506820
RightHand -14.713691 -0.000000 10.423962
RightHandThumb1 -24.326973 -0.000000 -32.862282
LeftUpLeg -6.086573 -3.043194 -8.238156
LeftLeg 16.824955 -0.000000 -0.000000
LeftFoot -27.390084 25.670166 -21.652602
LeftToeBase 9.362152 -0.000000 -0.000000
RightUpLeg -42.312470 -7.042606 -6.343770
RightLeg 89.549123 -0.000000 -0.000000
RightFoot -2.526678 -12.239220 14.876842
RightToeBase 0.512136 -0.000000 -0.000000
247
root -1.823051 31.592425 -6.249575 0.738885 8.836837 -0.022935
Spine 3.439216 -6.641041 -1.275200
Head 11.114356 4.428458 2.753342
LeftShoulder -17.202141 15.841220 12.975167
LeftArm 8.658374 -42.652982 -66.673294
LeftForeArm -15.210375 0.000000 77.676238
LeftHand -8.400689 -0.000000 19.002612
LeftHandThumb1 -26.253704 0.000000 33.147579
RightShoulder -11.687264 -2.201327 -12.299304
RightArm 6.068260 -29.366055 86.989561
RightForeArm -23.129884 -0.000000 21.500997
RightHand -14.726840 -0.000000 10.366639
RightHandThumb1 -24.326973 -0.000000 -32.862282
LeftUpLeg -6.063447 -3.061077 -8.226078
LeftLeg 16.817248 -0.000000 -0.000000
LeftFoot -27.352824 25.727814 -21.556227
LeftToeBase 9.310826 -0.000000 -0.000000
RightUpLeg -42.608918 -7.182509 -6.342787
RightLeg 89.324009 -0.000000 -0.000000
RightFoot -2.737655 -12.406852 15.014142
RightToeBase 0.833132 -0.000000 -0.000000
248
root -1.810204 31.592289 -6.259596 0.705340 8.843127 -0.055034
Spine 3.512973 -6.635469 -1.262891
Head 10.891174 4.424464 2.822662
LeftShoulder -17.197352 15.808338 12.980399
LeftArm 8.745490 -42.740614 -66.865644
LeftForeArm -15.139635 -0.000000 77.781345
LeftHand -8.276538 0.000000 18.939767
LeftHandThumb1 -26.253704 0.000000 33.147579
RightShoulder -11.668625 -2.186582 -12.249582
RightArm 6.086744 -29.320889 86.993446
RightForeArm -23.204990 -0.000000 21.484153
RightHand -14.763119 0.000000 10.406580
RightHandThumb1 -24.326973 -0.000000 -32.862282
LeftUpLeg -6.062563 -3.103407 -8.218144
LeftLeg 16.823798 -0.000000 -0.000000
LeftFoot -27.371033 25.812638 -21.586669
LeftToeBase 9.203963 -0.000000 -0.000000
RightUpLeg -42.881984 -7.295341 -6.363028
RightLeg 89.064264 -0.000000 -0.000000
RightFoot -2.995485 -12.544545 15.067275
RightToeBase 0.779951 -0.000000 -0.000000
249
root -1.799066 31.592923 -6.266562 0.667894 8.833384 -0.081796
Spine 3.578325 -6.589741 -1.261904
Head 10.671896 4.393481 2.870958
LeftShoulder -17.175753 15.792238 12.994516
LeftArm 8.900789 -42.854787 -67.117793
LeftForeArm -15.087134 -0.000000 77.847598
LeftHand -8.120733 -0.000000 18.849558
LeftHandThumb1 -26.253704 0.000000 33.147579
RightShoulder -11.685428 -2.182970 -12.193140
RightArm 6.112520 -29.346965 86.984822
RightForeArm -23.234213 0.000000 21.458143
RightHand -14.803968 -0.000000 10.402102
RightHandThumb1 -24.326973 -0.000000 -32.862282
LeftUpLeg -6.000312 -3.023607 -8.218113
LeftLeg 16.747265 -0.000000 -0.000000
LeftFoot -27.319759 25.840973 -21.493461
LeftToeBase 9.016331 -0.000000 -0.000000
RightUpLeg -43.138605 -7.374366 -6.377926
RightLeg 88.766777 -0.000000 -0.000000
RightFoot -3.186897 -12.724810 14.884668
RightToeBase 0.441686 -0.000000 -0.000000
250
root -1.788820 31.594317 -6.272797 0.619905 8.815178 -0.123239
Spine 3.646577 -6.541652 -1.252643
Head 10.472555 4.361558 2.937591
LeftShoulder -17.170394 15.783919 13.013918
LeftArm 9.096584 -42.954335 -67.410762
LeftForeArm -15.062206 -0.000000 77.892162
LeftHand -7.973641 -0.000000 18.797221
LeftHandThumb1 -26.253704 0.000000 33.147579
RightShoulder -11.691543 -2.192277 -12.117357
RightArm 6.145257 -29.342463 86.959319
RightForeArm -23.200159 -0.000000 21.448599
RightHand -14.775871 0.000000 10.420695
RightHandThumb1 -24.326973 -0.000000 -32.862282
LeftUpLeg -5.936891 -2.978373 -8.200156
LeftLeg 16.678076 -0.000000 -0.000000
LeftFoot -27.284128 25.868025 -21.434625
LeftToeBase 9.034108 -0.000000 -0.000000
RightUpLeg -43.384086 -7.429031 -6.378543
RightLeg 88.461659 -0.000000 -0.000000
RightFoot -3.416505 -12.867903 14.878223
RightToeBase 0.846817 -0.000000 -0.000000
